PathFileType	3	(X/Y/Z)	running_1__fused_aligned.trc
DataRate	CameraRate	NumFrames	NumMarkers	Units	OrigDataRate	OrigDataStartFrame	OrigNumFrames
100.0	100.0	10	19	mm	100.0	3435	6379
Frame#	Time	pelvis			neck			head			hip_left			hip_right			knee_left			knee_right			ankle_left			ankle_right			heel_left			heel_right			toe_left			toe_right			shoulder_left			shoulder_right			elbow_left			elbow_right			wrist_left			wrist_right			
		X1	Y1	Z1	X2	Y2	Z2	X3	Y3	Z3	X4	Y4	Z4	X5	Y5	Z5	X6	Y6	Z6	X7	Y7	Z7	X8	Y8	Z8	X9	Y9	Z9	X10	Y10	Z10	X11	Y11	Z11	X12	Y12	Z12	X13	Y13	Z13	X14	Y14	Z14	X15	Y15	Z15	X16	Y16	Z16	X17	Y17	Z17	X18	Y18	Z18	X19	Y19	Z19	
3435	34.34000	-4.091357	937.641322	119.383640	-19.041079	1482.638404	246.650353	-15.995011	1562.098980	395.814642	71.538654	939.288151	114.798332	-79.721603	935.994522	123.968933	101.028173	512.406888	153.557416	-87.239570	532.932755	304.233149	70.263082	234.539170	-144.217367	-103.641584	164.708310	181.951037	59.644392	222.128953	-198.252819	-106.737860	122.630206	143.098311	85.364481	72.579646	-61.897588	-95.726718	95.569109	350.601760	152.866015	1452.431540	209.063720	-185.435084	1439.632160	189.551564	248.517685	1194.990738	148.916048	-274.984749	1197.109499	64.790257	146.140054	1127.556328	348.720304	-264.573205	1001.843581	223.946641
3436	34.35000	-5.424558	938.303042	119.261892	-20.636213	1483.237064	246.675391	-17.467749	1562.695554	395.889948	70.256964	939.881763	114.622478	-81.106316	936.724347	123.901293	100.961244	513.433988	154.410332	-87.734880	533.334605	302.836148	69.702784	238.900643	-149.727473	-102.880188	160.208025	185.739129	58.918486	227.517646	-204.380417	-106.030091	116.575108	147.187190	85.294538	73.621577	-70.087331	-94.628538	94.294234	359.433130	150.915240	1453.234530	208.575877	-186.939401	1440.016786	189.846660	246.559889	1195.842501	147.947989	-276.439162	1197.086515	65.955455	145.202361	1128.528813	348.090720	-265.822544	1001.893159	224.971346
3437	34.36000	-6.233257	940.056506	119.275480	-21.650421	1484.855468	246.936787	-17.966966	1564.231952	396.135715	69.408876	941.580023	114.583614	-81.875614	938.533014	123.967334	100.944487	515.597553	156.573442	-89.082050	534.230582	296.161972	70.447972	241.170523	-144.373939	-104.041653	158.321478	180.234936	59.767633	229.740666	-198.667532	-107.163758	114.217289	141.625610	85.813790	76.635885	-64.973584	-95.632440	92.675369	355.324997	149.201601	1455.631032	207.095274	-188.092122	1441.103494	191.495095	244.719966	1200.693240	142.257509	-277.594698	1197.309409	70.319642	148.441681	1130.943682	341.897971	-263.368716	1007.595842	229.941862
3438	34.37000	-7.041957	941.809970	119.289069	-22.664629	1486.473873	247.198182	-18.466183	1565.768350	396.381481	68.560787	943.278284	114.544750	-82.644913	940.341681	124.033376	100.927729	517.761119	158.736553	-90.429221	535.126558	289.487796	71.193160	243.440403	-139.020405	-105.203117	156.434932	174.730743	60.616780	231.963686	-192.954647	-108.297424	111.859470	136.064030	86.333041	79.650194	-59.859837	-96.636343	91.056504	351.216863	147.487962	1458.027534	205.614671	-189.244843	1442.190201	193.143531	242.880044	1205.543979	136.567029	-278.750234	1197.532304	74.683830	151.681001	1133.358551	335.705222	-260.914887	1013.298525	234.912379
3439	34.38000	-7.850657	943.563435	119.302658	-23.678836	1488.092278	247.459578	-18.965401	1567.304748	396.627247	67.712699	944.976544	114.505887	-83.414211	942.150347	124.099418	100.910972	519.924685	160.899663	-91.776391	536.022535	282.813621	71.938348	245.710283	-133.666871	-106.364581	154.548386	169.226549	61.465927	234.186706	-187.241762	-109.431091	109.501650	130.502450	86.852292	82.664503	-54.746090	-97.640246	89.437639	347.108729	145.774323	1460.424037	204.134068	-190.397565	1443.276909	194.791966	241.040122	1210.394718	130.876549	-279.905770	1197.755198	79.048017	154.920321	1135.773420	329.512473	-258.461058	1019.001208	239.882895
3440	34.39000	-8.659356	945.316899	119.316246	-24.693044	1489.710682	247.720973	-19.464618	1568.841147	396.873013	66.864610	946.674805	114.467023	-84.183510	943.959014	124.165459	100.894215	522.088250	163.062774	-93.123561	536.918512	276.139445	72.683536	247.980163	-128.313338	-107.526045	152.661840	163.722356	62.315074	236.409726	-181.528877	-110.564758	107.143831	124.940870	87.371544	85.678811	-49.632342	-98.644148	87.818774	343.000596	144.060684	1462.820539	202.653465	-191.550286	1444.363616	196.440401	239.200200	1215.245457	125.186069	-281.061306	1197.978092	83.412205	158.159641	1138.188289	323.319724	-256.007229	1024.703890	244.853411
3441	34.40000	-9.468056	947.070363	119.329835	-25.707252	1491.329087	247.982369	-19.963835	1570.377545	397.118779	66.016522	948.373065	114.428159	-84.952809	945.767681	124.231501	100.877457	524.251816	165.225884	-94.470731	537.814489	269.465269	73.428724	250.250043	-122.959804	-108.687509	150.775293	158.218163	63.164221	238.632746	-175.815992	-111.698424	104.786012	119.379290	87.890795	88.693120	-44.518595	-99.648051	86.199908	338.892462	142.347045	1465.217041	201.172862	-192.703007	1445.450324	198.088836	237.360278	1220.096196	119.495589	-282.216842	1198.200987	87.776392	161.398961	1140.603157	317.126975	-253.553400	1030.406573	249.823928
3442	34.41000	-10.276756	948.823827	119.343423	-26.721460	1492.947492	248.243764	-20.463052	1571.913943	397.364546	65.168433	950.071325	114.389295	-85.722107	947.576348	124.297543	100.860700	526.415382	167.388994	-95.817901	538.710466	262.791093	74.173912	252.519922	-117.606270	-109.848974	148.888747	152.713970	64.013367	240.855766	-170.103107	-112.832091	102.428193	113.817710	88.410047	91.707429	-39.404848	-100.651954	84.581043	334.784328	140.633406	1467.613544	199.692260	-193.855728	1446.537032	199.737271	235.520355	1224.946935	113.805109	-283.372378	1198.423881	92.140580	164.638281	1143.018026	310.934226	-251.099571	1036.109256	254.794444
3443	34.42000	-11.085455	950.577292	119.357012	-27.735667	1494.565897	248.505160	-20.962269	1573.450341	397.610312	64.320345	951.769586	114.350431	-86.491406	949.385014	124.363584	100.843943	528.578947	169.552105	-97.165072	539.606442	256.116917	74.919100	254.789802	-112.252736	-111.010438	147.002201	147.209777	64.862514	243.078787	-164.390222	-113.965757	100.070374	108.256130	88.929298	94.721737	-34.291101	-101.655857	82.962178	330.676195	138.919767	1470.010046	198.211657	-195.008449	1447.623739	201.385706	233.680433	1229.797674	108.114630	-284.527914	1198.646776	96.504767	167.877601	1145.432895	304.741477	-248.645742	1041.811939	259.764960
3444	34.43000	-11.894155	952.330756	119.370600	-28.749875	1496.184301	248.766555	-21.461486	1574.986740	397.856078	63.472256	953.467846	114.311567	-87.260704	951.193681	124.429626	100.827185	530.742513	171.715215	-98.512242	540.502419	249.442741	75.664288	257.059682	-106.899202	-112.171902	145.115655	141.705583	65.711661	245.301807	-158.677337	-115.099424	97.712554	102.694550	89.448549	97.736046	-29.177353	-102.659759	81.343313	326.568061	137.206128	1472.406548	196.731054	-196.161170	1448.710447	203.034142	231.840511	1234.648413	102.424150	-285.683450	1198.869670	100.868955	171.116920	1147.847764	298.548728	-246.191913	1047.514622	264.735477
